# xmcd CD database file
#
# Track frame offsets:
#	150
#	12889
#	24898
#	37735
#	50827
#	63025
#	77820
#	92401
#	105187
#	116596
#	130501
#	144448
#	157377
#	171333
#	184593
#	199158
#	213830
#	227364
#	241369
#	254816
#	266900
#
# Disc length: 3722 seconds
#
# Revision: 1
# Processed by: cddbd v1.5.2PL0 Copyright (c) Steve Scherf et al.
# Submitted via: CDex 1.51
#
DISCID=130e8815
DTITLE=Les Brown - Les Brown
DYEAR=1900
DGENRE=Jazz
TTITLE0=Ramona
TTITLE1=Heat Wave
TTITLE2=Red Wing
TTITLE3=Green Eyes
TTITLE4=The Moon Was Yellow
TTITLE5=That Old Black Magic
TTITLE6=Over the Rainbow
TTITLE7=You're Blase
TTITLE8=Sugar
TTITLE9=Deep Purple
TTITLE10=You're the Cream in My Coffee
TTITLE11=Something Wonderful Happens
TTITLE12=How About You
TTITLE13=You're My Everything
TTITLE14=Love Letters in the Sand
TTITLE15=You're Driving Me Crazy
TTITLE16=Blue Moon
TTITLE17=Perdido
TTITLE18=Azure
TTITLE19=My Baby Just Cares for Me
TTITLE20=You're a Sweetheart
EXTD=
EXTT0=
EXTT1=
EXTT2=
EXTT3=
EXTT4=
EXTT5=
EXTT6=
EXTT7=
EXTT8=
EXTT9=
EXTT10=
EXTT11=
EXTT12=
EXTT13=
EXTT14=
EXTT15=
EXTT16=
EXTT17=
EXTT18=
EXTT19=
EXTT20=
PLAYORDER=
